<svg id="Layer_1" enable-background="new 0 0 510.222 510.222" height="512" viewBox="0 0 510.222 510.222" width="512" xmlns="http://www.w3.org/2000/svg"><g><path id="XMLID_34_" d="m44.684 165.111v270l105.25 13.191 105.25-13.191 17-135-17-135c-11.688 0-198.811 0-210.5 0z" fill="#e9f1ff"/><path id="XMLID_30_" d="m465.684 165.111c-11.688 0-198.811 0-210.5 0v270l105.25 13.191 105.25-13.191c0-15 0-255 0-270z" fill="#d5def0"/><path id="XMLID_24_" d="m30.184 150.111v285l15 7.275 15-7.275c0-13.961 0-241.15 0-255h195c0-10.492 0-19.508 0-30-15.192 0-209.805 0-225 0z" fill="#6058ad"/><path id="XMLID_23_" d="m450.184 435.111 15 7.275 15-7.275c0-15.815 0-269.185 0-285-15.192 0-209.806 0-225 0v30h195z" fill="#453f81"/><path id="XMLID_106_" d="m195.184 301.133-15 6.989-15 6.989-15-7.5-15-7.5c0-.216 0-52.598 0-105 0-51.045 0-102.109 0-105h30 30c0 5.209 13.667 105.511 13.667 105.511s-13.667 101.659-13.667 105.511z" fill="#ff617d"/><path id="XMLID_22_" d="m315.184 300.111 15 7.5 15 7.5 15-7.5 15-7.5c0-11.848 0-62.203 0-112.5 0-50.824 0-101.588 0-112.5-3.631 0-16.815 0-30 0-13.173 0-26.349 0-30 0 0 10.92-12.333 112.5-12.333 112.5s12.333 100.647 12.333 112.5z" fill="#fdbf00"/><path id="XMLID_25_" d="m255.184 300.111-15 7.5-15 7.5-15-6.989-15-6.989c0-4.555 0-62.518 0-120.511 0-57.308 0-114.647 0-120.511h30 30c0 6.107 13.667 120.001 13.667 120.001s-13.667 115.807-13.667 119.999z" fill="#ffda2d"/><path id="XMLID_21_" d="m315.184.111c-7.259 0-52.692 0-60 0v300l30 15 30-15c0-6.023 0-291.339 0-300z" fill="#e7374e"/><path id="XMLID_20_" d="m105.184 300.111v30h150l13.667-15-13.667-15s-139.87 0-150 0z" fill="#76e2f8"/><path id="XMLID_9_" d="m405.184 300.111c-10.128 0-139.87 0-150 0v30h150c0-10.492 0-19.508 0-30z" fill="#4bb9ec"/><path id="XMLID_7_" d="m.184 435.111c0 26.286-2.89 43.667 14.222 60.779 8.781 8.781 20.906 14.221 34.278 14.221h206.5l13.667-37.5-13.667-37.5c-7.193 0-247.806 0-255 0z" fill="#ff9721"/><path id="XMLID_3_" d="m510.184 448.361v-13.25c-7.193 0-247.807 0-255 0v75h206.5c13.372 0 25.497-5.439 34.278-14.221 18.697-18.696 13.252-40.615 14.222-47.529z" fill="#f87107"/></g></svg>